/* XPM */
static char *_1db616930d5423e8684d19f1e00f4c42J6md11f0o02YGm4[] = {
/* columns rows colors chars-per-pixel */
"16 16 39 1 ",
"  c #7E0000",
". c #694757",
"X c #5D696C",
"o c #66767A",
"O c gray50",
"+ c #970000",
"@ c #980000",
"# c #A40000",
"$ c #BD0000",
"% c #85262C",
"& c #81333B",
"* c #B7262C",
"= c #CA0000",
"- c #C70E0F",
"; c #9A4757",
": c #9B4757",
"> c #306C83",
", c #4D7291",
"< c #737291",
"1 c #2687AE",
"2 c #2688AF",
"3 c #308AAE",
"4 c #398EAF",
"5 c #438EBD",
"6 c #139FDA",
"7 c #1F9FDA",
"8 c #209ED9",
"9 c #0AA5E7",
"0 c #00A2E8",
"q c #0AA5E8",
"w c #26B0E8",
"e c #30B3E9",
"r c #9F9F9F",
"t c gray75",
"y c #C0C0C0",
"u c #D0D0D0",
"i c #DFDFDF",
"p c #EFEFEF",
"a c white",
/* pixels */
"aaaaaaaaaaaaaaaa",
"aaittttttttttpaa",
"aaO422222222>yaa",
"aaOw000000001yaa",
"aaOw00,500001yaa",
"aaOw0<@-50001yaa",
"aaOw<=+=-5001yaa",
"aaOe.+@#=-501yaa",
"aa;eq:=$#=-51yaa",
"aa5e0q;=$ @&3yaa",
"aa5e00q;=@*71yaa",
"aa;w000q;%801yaa",
"aaOw000096001yaa",
"aaOw000000001yaa",
"aaroooooooooXuaa",
"aaaaaaaaaaaaaaaa"
};
